{"title":"The Adventures of Tintin 2011 DVDRip XVID AC3-TRiNiTY","uid":7046941,"size":1170072988,"categoryP":"video","categoryS":"movies","magnet":"?xt=urn:btih:58f83d3b789cf15cff555d11bc62d51876ae8bf3&amp;dn=The+Adventures+of+Tintin+2011+DVDRip+XVID+AC3-TRiNiTY&amp;tr=udp%3A%2F%2Ftracker.openbittorrent.com%3A80&amp;tr=udp%3A%2F%2Fopen.demonii.com%3A1337&amp;tr=udp%3A%2F%2Ftracker.coppersurfer.tk%3A6969&amp;tr=udp%3A%2F%2Fexodus.desync.com%3A6969","seeders":0,"leechers":1,"uploader":"Hackulus","files":-1,"time":1329785239,"description":"\n\nEnCoDer:Allycat\n\n\n\nGeneral\nComplete name                    : The.Adventures.of.Tintin.2011.DVDRip.XVID AC3-TRiNiTY.avi\nFormat                           : AVI\nFormat/Info                      : Audio Video Interleave\nFile size                        : 1.07 GiB\nDuration                         : 1h 42mn\nOverall bit rate                 : 1 492 Kbps\nWriting library                  : VirtualDub build 30091/release\n\nVideo\nID                               : 0\nFormat                           : MPEG-4 Visual\nFormat profile                   : Advanced Simple@L5\nFormat settings, BVOP            : 2\nFormat settings, QPel            : No\nFormat settings, GMC             : No warppoints\nFormat settings, Matrix          : Default (H.263)\nCodec ID                         : XVID\nCodec ID/Hint                    : XviD\nDuration                         : 1h 42mn\nBit rate                         : 1 098 Kbps\nWidth                            : 640 pixels\nHeight                           : 272 pixels\nDisplay aspect ratio             : 2.35:1\nFrame rate                       : 25.000 fps\nColor space                      : YUV\nChroma subsampling               : 4:2:0\nBit depth                        : 8 bits\nScan type                        : Progressive\nCompression mode                 : Lossy\nBits/(Pixel*Frame)               : 0.252\nStream size                      : 805 MiB (74%)\nWriting library                  : XviD 1.2.1 (UTC 2008-12-04)\n\nAudio\nID                               : 1\nFormat                           : AC-3\nFormat/Info                      : Audio Coding 3\nMode extension                   : CM (complete main)\nCodec ID                         : 2000\nDuration                         : 1h 42mn\nBit rate mode                    : Constant\nBit rate                         : 384 Kbps\nChannel(s)                       : 2 channels\nChannel positions                : Front: L R\nSampling rate                    : 48.0 KHz\nBit depth                        : 16 bits\nCompression mode                 : Lossy\nStream size                      : 282 MiB (26%)\nAlignment                        : Aligned on interleaves\nInterleave, duration             : 40 ms (1.00 video frame)\nInterleave, preload duration     : 512 ms\n\nSOURCE:\nThe.Adventures.of.Tintin.2011.DVDRip.XviD-TARGET:THANKS.\n\nSAMPLE:YES.\n\nPLOT:\nIntrepid reporter Tintin and Captain Haddock set off on a treasure hunt for a sunken ship commanded by Haddock's ancestor\n\n\n","torrent":{"xt":"urn:btih:58f83d3b789cf15cff555d11bc62d51876ae8bf3","amp;dn":"The+Adventures+of+Tintin+2011+DVDRip+XVID+AC3-TRiNiTY","amp;tr":["udp%3A%2F%2Ftracker.openbittorrent.com%3A80","udp%3A%2F%2Fopen.demonii.com%3A1337","udp%3A%2F%2Ftracker.coppersurfer.tk%3A6969","udp%3A%2F%2Fexodus.desync.com%3A6969"],"infoHash":"58f83d3b789cf15cff555d11bc62d51876ae8bf3","infoHashBuffer":{"type":"Buffer","data":[88,248,61,59,120,156,241,92,255,85,93,17,188,98,213,24,118,174,139,243]},"announce":[],"urlList":[]}}